<?xml version="1.0" encoding="utf-8"?>
<!-- Generator: Adobe Illustrator 21.0.0, SVG Export Plug-In . SVG Version: 6.00 Build 0)  -->
<svg version="1.1" id="Layer_1" xmlns="http://www.w3.org/2000/svg" xmlns:xlink="http://www.w3.org/1999/xlink" x="0px" y="0px"
	 viewBox="0 0 185.9 51.1" style="enable-background:new 0 0 185.9 51.1;" xml:space="preserve">
<style type="text/css">
	.st0{fill:none;stroke:#333333;stroke-width:3;stroke-miterlimit:10;}
	.st1{fill:#333333;}
</style>
<g>
	<g>
		<path class="st0" d="M27.9,20.7c2.7,2.7,2.7,7,0,9.7c-2.7,2.7-7,2.7-9.7,0s-2.7-7,0-9.7 M27.9,20.7L27.9,20.7
			c-5.1-5.1-13.4-5.1-18.5,0l-4.8,4.8L23,44.1l18.5-18.5L23,7 M27.9,30.4c2.7-2.7,2.7-7,0-9.7c-2.7-2.7-7-2.7-9.7,0s-2.7,7,0,9.7
			 M18.2,30.4L18.2,30.4c5.1,5.1,13.4,5.1,18.5,0l4.8-4.8L23,7L4.5,25.5L23,44.1"/>
	</g>
</g>
<g>
	<path class="st1" d="M50,16h5.6l4.1,11.5L63.9,16h5.5L62,34.2h-4.7L50,16z"/>
	<path class="st1" d="M74.8,15.8h4.8l7.7,18.3H82l-1.3-3.3h-7l-1.3,3.3h-5.3L74.8,15.8z M79.2,26.9l-2-5.1l-2,5.1H79.2z"/>
	<path class="st1" d="M89.1,16h4.7l7.5,9.6V16h5v18.1h-4.4l-7.8-9.9v9.9h-5V16z"/>
	<path class="st1" d="M113.9,20.4h-5.4V16h15.9v4.4h-5.4v13.7h-5V20.4z"/>
	<path class="st1" d="M130.5,15.8h4.8l7.7,18.3h-5.4l-1.3-3.3h-7l-1.3,3.3h-5.3L130.5,15.8z M134.9,26.9l-2-5.1l-2,5.1H134.9z"/>
	<path class="st1" d="M143.1,25.1L143.1,25.1c0-5.3,4.1-9.5,9.7-9.5c3.2,0,5.4,1,7.4,2.6l-3,3.6c-1.3-1.1-2.6-1.7-4.4-1.7
		c-2.6,0-4.6,2.2-4.6,4.9v0.1c0,3,2,5.1,4.9,5.1c1.2,0,2.2-0.3,2.9-0.8v-2.2h-3.5v-3.7h8.3v8.1c-1.9,1.6-4.6,2.8-7.9,2.8
		C147.3,34.5,143.1,30.6,143.1,25.1z"/>
	<path class="st1" d="M163.6,16h14.6v4.2h-9.6V23h8.7v4h-8.7v2.9h9.7v4.3h-14.7V16z"/>
</g>
</svg>
